<mxfile host="app.diagrams.net" modified="2023-10-18T09:33:40.412Z" agent="Mozilla/5.0 (Macintosh; Intel Mac OS X 10_15_7) AppleWebKit/537.36 (KHTML, like Gecko) Chrome/118.0.0.0 Safari/537.36 Edg/118.0.2088.46" etag="3O1kV5kxinSyEk_JHBkS" version="22.0.4" type="device">
  <diagram name="第 1 页" id="uSII-9ffU3oPyrLIe05Q">
    <mxGraphModel dx="2074" dy="1188" grid="1" gridSize="10" guides="1" tooltips="1" connect="1" arrows="1" fold="1" page="1" pageScale="1" pageWidth="827" pageHeight="1169" math="0" shadow="0">
      <root>
        <mxCell id="0" />
        <mxCell id="1" parent="0" />
        <mxCell id="FXYuSBFtm6RY9QzZf5k2-1" value="OptimizeGroupTask" style="rounded=0;whiteSpace=wrap;html=1;fillColor=#dae8fc;strokeColor=#6c8ebf;" vertex="1" parent="1">
          <mxGeometry x="610" y="400" width="140" height="40" as="geometry" />
        </mxCell>
        <mxCell id="FXYuSBFtm6RY9QzZf5k2-2" value="OptimizeExpressionTask" style="rounded=0;whiteSpace=wrap;html=1;fillColor=#f8cecc;strokeColor=#b85450;" vertex="1" parent="1">
          <mxGeometry x="350" y="530" width="140" height="40" as="geometry" />
        </mxCell>
        <mxCell id="FXYuSBFtm6RY9QzZf5k2-3" value="EnforceAndCostTask" style="rounded=0;whiteSpace=wrap;html=1;fillColor=#e1d5e7;strokeColor=#9673a6;" vertex="1" parent="1">
          <mxGeometry x="856" y="530" width="140" height="40" as="geometry" />
        </mxCell>
        <mxCell id="FXYuSBFtm6RY9QzZf5k2-5" style="edgeStyle=orthogonalEdgeStyle;rounded=0;orthogonalLoop=1;jettySize=auto;html=1;exitX=0.5;exitY=0;exitDx=0;exitDy=0;entryX=0.5;entryY=1;entryDx=0;entryDy=0;" edge="1" parent="1" source="FXYuSBFtm6RY9QzZf5k2-4" target="FXYuSBFtm6RY9QzZf5k2-3">
          <mxGeometry relative="1" as="geometry" />
        </mxCell>
        <mxCell id="FXYuSBFtm6RY9QzZf5k2-4" value="OptimizeGroupTask" style="rounded=0;whiteSpace=wrap;html=1;fillColor=#dae8fc;strokeColor=#6c8ebf;" vertex="1" parent="1">
          <mxGeometry x="760" y="630" width="140" height="40" as="geometry" />
        </mxCell>
        <mxCell id="FXYuSBFtm6RY9QzZf5k2-6" value="OptimizeGroupTask" style="rounded=0;whiteSpace=wrap;html=1;fillColor=#dae8fc;strokeColor=#6c8ebf;" vertex="1" parent="1">
          <mxGeometry x="950" y="630" width="140" height="40" as="geometry" />
        </mxCell>
        <mxCell id="FXYuSBFtm6RY9QzZf5k2-7" style="edgeStyle=orthogonalEdgeStyle;rounded=0;orthogonalLoop=1;jettySize=auto;html=1;exitX=0.5;exitY=0;exitDx=0;exitDy=0;entryX=0.612;entryY=1.041;entryDx=0;entryDy=0;entryPerimeter=0;" edge="1" parent="1" source="FXYuSBFtm6RY9QzZf5k2-6" target="FXYuSBFtm6RY9QzZf5k2-3">
          <mxGeometry relative="1" as="geometry" />
        </mxCell>
        <mxCell id="FXYuSBFtm6RY9QzZf5k2-8" style="edgeStyle=orthogonalEdgeStyle;rounded=0;orthogonalLoop=1;jettySize=auto;html=1;exitX=0.5;exitY=0;exitDx=0;exitDy=0;entryX=0.37;entryY=1.001;entryDx=0;entryDy=0;entryPerimeter=0;" edge="1" parent="1" source="FXYuSBFtm6RY9QzZf5k2-2" target="FXYuSBFtm6RY9QzZf5k2-1">
          <mxGeometry relative="1" as="geometry">
            <Array as="points">
              <mxPoint x="420" y="490" />
              <mxPoint x="662" y="490" />
            </Array>
          </mxGeometry>
        </mxCell>
        <mxCell id="FXYuSBFtm6RY9QzZf5k2-9" style="edgeStyle=orthogonalEdgeStyle;rounded=0;orthogonalLoop=1;jettySize=auto;html=1;exitX=0.541;exitY=-0.003;exitDx=0;exitDy=0;entryX=0.527;entryY=0.985;entryDx=0;entryDy=0;entryPerimeter=0;exitPerimeter=0;" edge="1" parent="1" source="FXYuSBFtm6RY9QzZf5k2-23" target="FXYuSBFtm6RY9QzZf5k2-1">
          <mxGeometry relative="1" as="geometry">
            <Array as="points">
              <mxPoint x="926" y="490" />
              <mxPoint x="684" y="490" />
            </Array>
          </mxGeometry>
        </mxCell>
        <mxCell id="FXYuSBFtm6RY9QzZf5k2-10" value="ApplyRuleTask" style="rounded=0;whiteSpace=wrap;html=1;" vertex="1" parent="1">
          <mxGeometry x="350" y="620" width="140" height="40" as="geometry" />
        </mxCell>
        <mxCell id="FXYuSBFtm6RY9QzZf5k2-21" style="edgeStyle=orthogonalEdgeStyle;rounded=0;orthogonalLoop=1;jettySize=auto;html=1;exitX=0.5;exitY=1;exitDx=0;exitDy=0;entryX=0.5;entryY=0;entryDx=0;entryDy=0;endArrow=none;endFill=0;startArrow=classic;startFill=1;" edge="1" parent="1" source="FXYuSBFtm6RY9QzZf5k2-11" target="FXYuSBFtm6RY9QzZf5k2-12">
          <mxGeometry relative="1" as="geometry" />
        </mxCell>
        <mxCell id="FXYuSBFtm6RY9QzZf5k2-11" value="DeriveStatsTask" style="rounded=0;whiteSpace=wrap;html=1;" vertex="1" parent="1">
          <mxGeometry x="344" y="860" width="140" height="40" as="geometry" />
        </mxCell>
        <mxCell id="FXYuSBFtm6RY9QzZf5k2-12" value="OptimizeExpressionTask" style="rounded=0;whiteSpace=wrap;html=1;fillColor=#f8cecc;strokeColor=#b85450;" vertex="1" parent="1">
          <mxGeometry x="344" y="940" width="140" height="40" as="geometry" />
        </mxCell>
        <mxCell id="FXYuSBFtm6RY9QzZf5k2-14" value="OptimizeExpressionTask" style="rounded=0;whiteSpace=wrap;html=1;fillColor=#f8cecc;strokeColor=#b85450;" vertex="1" parent="1">
          <mxGeometry x="220" y="730" width="140" height="40" as="geometry" />
        </mxCell>
        <mxCell id="FXYuSBFtm6RY9QzZf5k2-15" value="EnforceAndCostTask" style="rounded=0;whiteSpace=wrap;html=1;fillColor=#e1d5e7;strokeColor=#9673a6;" vertex="1" parent="1">
          <mxGeometry x="460" y="730" width="140" height="40" as="geometry" />
        </mxCell>
        <mxCell id="FXYuSBFtm6RY9QzZf5k2-16" style="edgeStyle=orthogonalEdgeStyle;rounded=0;orthogonalLoop=1;jettySize=auto;html=1;exitX=0.5;exitY=0;exitDx=0;exitDy=0;entryX=0.399;entryY=1.019;entryDx=0;entryDy=0;entryPerimeter=0;" edge="1" parent="1" source="FXYuSBFtm6RY9QzZf5k2-14" target="FXYuSBFtm6RY9QzZf5k2-10">
          <mxGeometry relative="1" as="geometry" />
        </mxCell>
        <mxCell id="FXYuSBFtm6RY9QzZf5k2-17" style="edgeStyle=orthogonalEdgeStyle;rounded=0;orthogonalLoop=1;jettySize=auto;html=1;exitX=0.5;exitY=0;exitDx=0;exitDy=0;entryX=0.547;entryY=1.019;entryDx=0;entryDy=0;entryPerimeter=0;" edge="1" parent="1" source="FXYuSBFtm6RY9QzZf5k2-15" target="FXYuSBFtm6RY9QzZf5k2-10">
          <mxGeometry relative="1" as="geometry" />
        </mxCell>
        <mxCell id="FXYuSBFtm6RY9QzZf5k2-26" style="edgeStyle=orthogonalEdgeStyle;rounded=0;orthogonalLoop=1;jettySize=auto;html=1;exitX=0.5;exitY=1;exitDx=0;exitDy=0;endArrow=none;endFill=0;startArrow=classic;startFill=1;" edge="1" parent="1" source="FXYuSBFtm6RY9QzZf5k2-22" target="FXYuSBFtm6RY9QzZf5k2-11">
          <mxGeometry relative="1" as="geometry" />
        </mxCell>
        <mxCell id="FXYuSBFtm6RY9QzZf5k2-22" value="" style="rounded=1;whiteSpace=wrap;html=1;fillColor=none;dashed=1;" vertex="1" parent="1">
          <mxGeometry x="190" y="600" width="448" height="200" as="geometry" />
        </mxCell>
        <mxCell id="FXYuSBFtm6RY9QzZf5k2-23" value="" style="rounded=1;whiteSpace=wrap;html=1;fillColor=none;dashed=1;" vertex="1" parent="1">
          <mxGeometry x="710" y="515" width="400" height="175" as="geometry" />
        </mxCell>
        <mxCell id="FXYuSBFtm6RY9QzZf5k2-24" style="edgeStyle=orthogonalEdgeStyle;rounded=0;orthogonalLoop=1;jettySize=auto;html=1;exitX=0.5;exitY=1;exitDx=0;exitDy=0;entryX=0.512;entryY=-0.008;entryDx=0;entryDy=0;entryPerimeter=0;endArrow=none;endFill=0;startArrow=classic;startFill=1;" edge="1" parent="1" source="FXYuSBFtm6RY9QzZf5k2-2" target="FXYuSBFtm6RY9QzZf5k2-22">
          <mxGeometry relative="1" as="geometry" />
        </mxCell>
      </root>
    </mxGraphModel>
  </diagram>
</mxfile>
